<svg version="1.1" id="Layer_1" xmlns="http://www.w3.org/2000/svg" xmlns:xlink="http://www.w3.org/1999/xlink" x="0px" y="0px"
	 width="100%" viewBox="0 0 50 50" enable-background="new 0 0 50 50" xml:space="preserve">
<path fill="#000000" opacity="1.000000" stroke="none" 
	d="
M36.011639,51.000000 
	C24.009508,51.000000 12.509784,51.000000 1.007545,51.000000 
	C1.005030,34.337090 1.005030,17.674175 1.002514,1.008446 
	C17.662512,1.005631 34.325024,1.005631 50.990654,1.002814 
	C50.993767,17.662109 50.993767,34.324223 50.993767,51.000000 
	C46.171352,51.000000 41.342701,51.000000 36.011639,51.000000 
M8.213476,46.777260 
	C9.227221,47.184723 10.238425,47.939095 11.255100,47.946533 
	C22.712057,48.030434 34.169853,47.999653 46.949238,47.999653 
	C46.949238,43.074535 48.357185,37.826813 46.674778,33.904713 
	C42.318527,23.749237 36.600300,14.177986 31.228743,4.000039 
	C29.214025,4.000039 26.646545,3.618722 24.269442,4.127275 
	C22.537897,4.497718 20.375105,5.668484 19.577230,7.124881 
	C14.800994,15.843173 10.350700,24.740534 5.818971,33.592113 
	C2.168781,40.721828 2.186246,40.730770 8.213476,46.777260 
z"/>
<path fill="#FFFFFF" opacity="1.000000" stroke="none" 
	d="
M7.960459,46.463688 
	C2.186246,40.730770 2.168781,40.721828 5.818971,33.592113 
	C10.350700,24.740534 14.800994,15.843173 19.577230,7.124881 
	C20.375105,5.668484 22.537897,4.497718 24.269442,4.127275 
	C26.646545,3.618722 29.214025,4.000039 31.228743,4.000039 
	C36.600300,14.177986 42.318527,23.749237 46.674778,33.904713 
	C48.357185,37.826813 46.949238,43.074535 46.949238,47.999653 
	C34.169853,47.999653 22.712057,48.030434 11.255100,47.946533 
	C10.238425,47.939095 9.227221,47.184723 7.960459,46.463688 
M21.034824,19.616018 
	C23.195757,15.341743 25.356688,11.067467 27.517620,6.793191 
	C27.224180,6.445984 26.930738,6.098778 26.637299,5.751571 
	C25.395895,6.278989 23.511202,6.459831 23.011707,7.386958 
	C17.471651,17.670034 12.146214,28.068739 6.549967,38.846024 
	C14.019911,38.846024 20.768141,38.846024 27.332455,38.846024 
	C27.062984,30.690081 20.609171,33.686943 15.101288,32.603874 
	C17.176394,28.279308 19.070395,24.332167 21.034824,19.616018 
M22.485165,30.999699 
	C26.918835,30.439264 26.186749,26.010853 28.086882,23.555168 
	C28.807152,22.624311 29.758163,21.163879 30.559134,21.192680 
	C31.450092,21.224718 32.530716,22.539150 33.112534,23.537802 
	C36.649197,29.608221 40.067181,35.747776 43.578453,41.959183 
	C45.472317,38.441238 35.280003,15.003559 29.447147,9.658589 
	C26.443157,16.166969 23.474133,22.508474 20.648756,28.913347 
	C20.447100,29.370483 21.298370,30.292097 22.485165,30.999699 
M31.126995,37.638058 
	C31.462631,38.621746 31.798269,39.605431 32.289116,41.044014 
	C23.954342,41.044014 16.222754,41.044014 6.869606,41.044014 
	C9.585702,42.912655 11.073375,44.808720 12.616305,44.854805 
	C22.006351,45.135288 31.408972,44.994801 41.349220,44.994801 
	C37.568024,38.244312 34.153118,32.147751 30.734297,26.044205 
	C27.536406,29.907883 28.183905,33.423214 31.126995,37.638058 
z"/>
<path fill="#000000" opacity="1.000000" stroke="none" 
	d="
M20.999611,20.000523 
	C19.070395,24.332167 17.176394,28.279308 15.101288,32.603874 
	C20.609171,33.686943 27.062984,30.690081 27.332455,38.846024 
	C20.768141,38.846024 14.019911,38.846024 6.549967,38.846024 
	C12.146214,28.068739 17.471651,17.670034 23.011707,7.386958 
	C23.511202,6.459831 25.395895,6.278989 26.637299,5.751571 
	C26.930738,6.098778 27.224180,6.445984 27.517620,6.793191 
	C25.356688,11.067467 23.195757,15.341743 20.999611,20.000523 
z"/>
<path fill="#000000" opacity="1.000000" stroke="none" 
	d="
M22.072613,30.998720 
	C21.298370,30.292097 20.447100,29.370483 20.648756,28.913347 
	C23.474133,22.508474 26.443157,16.166969 29.447147,9.658589 
	C35.280003,15.003559 45.472317,38.441238 43.578453,41.959183 
	C40.067181,35.747776 36.649197,29.608221 33.112534,23.537802 
	C32.530716,22.539150 31.450092,21.224718 30.559134,21.192680 
	C29.758163,21.163879 28.807152,22.624311 28.086882,23.555168 
	C26.186749,26.010853 26.918835,30.439264 22.072613,30.998720 
z"/>
<path fill="#000000" opacity="1.000000" stroke="none" 
	d="
M31.056030,37.234299 
	C28.183905,33.423214 27.536406,29.907883 30.734297,26.044205 
	C34.153118,32.147751 37.568024,38.244312 41.349220,44.994801 
	C31.408972,44.994801 22.006351,45.135288 12.616305,44.854805 
	C11.073375,44.808720 9.585702,42.912655 6.869606,41.044014 
	C16.222754,41.044014 23.954342,41.044014 32.289116,41.044014 
	C31.798269,39.605431 31.462631,38.621746 31.056030,37.234299 
z"/>
</svg>